<svg width="17" height="19" viewBox="0 0 17 19" fill="none" xmlns="http://www.w3.org/2000/svg">
<path d="M6.26366 16.1859V16.1689C6.26436 16.0468 6.22778 15.9274 6.15881 15.8266C6.08984 15.7258 5.99175 15.6485 5.87766 15.6049C5.23343 15.3517 4.63179 15.0013 4.09366 14.5659C3.99877 14.4878 3.8825 14.4402 3.76009 14.4294C3.63768 14.4185 3.51484 14.4448 3.40766 14.5049C2.91968 14.7786 2.34323 14.8481 1.80419 14.6982C1.26515 14.5483 0.807314 14.1912 0.530659 13.7049C0.393369 13.464 0.305139 13.1984 0.27106 12.9232C0.236981 12.648 0.257727 12.3689 0.332102 12.1018C0.406477 11.8347 0.533008 11.5849 0.704395 11.367C0.875781 11.149 1.08863 10.9672 1.33066 10.8319L1.33966 10.8269C1.44374 10.7682 1.52789 10.6797 1.58134 10.5728C1.63479 10.4659 1.6551 10.3454 1.63966 10.2269C1.54978 9.58633 1.55079 8.93625 1.64266 8.29593C1.65838 8.17507 1.63754 8.05227 1.58282 7.94337C1.5281 7.83447 1.44201 7.74445 1.33566 7.68493L1.32466 7.67793C1.08289 7.54267 0.870282 7.36091 0.69907 7.14312C0.527857 6.92533 0.401429 6.67581 0.327067 6.40895C0.252706 6.14209 0.231882 5.86315 0.265793 5.5882C0.299705 5.31325 0.387683 5.04773 0.524659 4.80693C0.801502 4.32083 1.25934 3.96392 1.7983 3.81405C2.33726 3.66418 2.91362 3.73352 3.40166 4.00693L3.44366 4.03093C3.55071 4.0907 3.67325 4.11693 3.79538 4.10623C3.91752 4.09553 4.03363 4.0484 4.12866 3.97093C4.6575 3.55234 5.24602 3.21527 5.87466 2.97093C5.98899 2.92708 6.08736 2.84963 6.1568 2.74877C6.22624 2.64791 6.26349 2.52838 6.26366 2.40593C6.25754 2.12504 6.30759 1.84576 6.41085 1.58447C6.51411 1.32318 6.66852 1.08515 6.86501 0.884333C7.0615 0.683518 7.29612 0.523966 7.5551 0.415038C7.81408 0.30611 8.0922 0.25 8.37316 0.25C8.65411 0.25 8.93224 0.30611 9.19122 0.415038C9.4502 0.523966 9.68482 0.683518 9.88131 0.884333C10.0778 1.08515 10.2322 1.32318 10.3355 1.58447C10.4387 1.84576 10.4888 2.12504 10.4827 2.40593V2.41893C10.4828 2.54086 10.5197 2.65992 10.5886 2.76054C10.6574 2.86116 10.755 2.93867 10.8687 2.98293C11.4894 3.2296 12.0703 3.56657 12.5927 3.98293C12.6874 4.0613 12.8036 4.10917 12.9261 4.12023C13.0485 4.1313 13.1714 4.10505 13.2787 4.04493L13.3407 4.00993C13.8289 3.73589 14.4057 3.6662 14.9452 3.8161C15.4846 3.96599 15.9428 4.32329 16.2197 4.80993C16.3561 5.05101 16.4437 5.31666 16.4774 5.59164C16.511 5.86662 16.4901 6.14555 16.4158 6.41243C16.3415 6.67931 16.2152 6.92891 16.0443 7.14693C15.8734 7.36494 15.6611 7.54709 15.4197 7.68293L15.3707 7.70993C15.2666 7.76869 15.1824 7.85719 15.129 7.96409C15.0755 8.07099 15.0552 8.19142 15.0707 8.30993C15.1174 8.6335 15.1408 8.96001 15.1407 9.28693C15.1405 9.59766 15.1194 9.90802 15.0777 10.2159C15.0622 10.3344 15.0825 10.4549 15.136 10.5618C15.1894 10.6687 15.2736 10.7572 15.3777 10.8159L15.4207 10.8399C15.662 10.9758 15.8741 11.1579 16.045 11.3758C16.2158 11.5938 16.342 11.8432 16.4163 12.11C16.4906 12.3768 16.5116 12.6556 16.478 12.9305C16.4444 13.2053 16.357 13.4709 16.2207 13.7119C15.9438 14.198 15.486 14.5549 14.947 14.7048C14.4081 14.8547 13.8317 14.7853 13.3437 14.5119L13.3187 14.4979C13.2107 14.4378 13.0871 14.4119 12.9641 14.4235C12.8411 14.4351 12.7245 14.4837 12.6297 14.5629C12.0978 14.9941 11.5037 15.3424 10.8677 15.5959C10.7541 15.6397 10.6566 15.7171 10.588 15.8176C10.5194 15.9182 10.483 16.0372 10.4837 16.1589V16.1899C10.4898 16.4708 10.4397 16.7501 10.3365 17.0114C10.2332 17.2727 10.0788 17.5107 9.88231 17.7115C9.68582 17.9123 9.4512 18.0719 9.19222 18.1808C8.93324 18.2898 8.65511 18.3459 8.37416 18.3459C8.0932 18.3459 7.81508 18.2898 7.5561 18.1808C7.29712 18.0719 7.0625 17.9123 6.86601 17.7115C6.66952 17.5107 6.51511 17.2727 6.41185 17.0114C6.30859 16.7501 6.25854 16.4708 6.26466 16.1899L6.26366 16.1859ZM4.97766 13.4729C5.40418 13.8179 5.88105 14.0954 6.39166 14.2959C6.76941 14.4419 7.09394 14.6992 7.32233 15.0336C7.55071 15.3681 7.67217 15.764 7.67066 16.1689V16.1859C7.67066 16.3724 7.74473 16.5512 7.87656 16.683C8.0084 16.8149 8.18721 16.8889 8.37366 16.8889C8.56011 16.8889 8.73892 16.8149 8.87076 16.683C9.00259 16.5512 9.07666 16.3724 9.07666 16.1859V16.1549C9.07525 15.7517 9.19578 15.3574 9.42242 15.0239C9.64906 14.6904 9.97123 14.4331 10.3467 14.2859C10.8523 14.0854 11.3244 13.8089 11.7467 13.4659C12.0603 13.2066 12.4452 13.0487 12.8506 13.0129C13.2559 12.9772 13.6626 13.0655 14.0167 13.2659L14.0397 13.2799C14.2028 13.3711 14.3952 13.3943 14.5753 13.3445C14.7554 13.2947 14.9086 13.1759 15.0017 13.0139C15.0469 12.9338 15.0759 12.8456 15.087 12.7543C15.0981 12.663 15.0911 12.5704 15.0664 12.4818C15.0417 12.3932 14.9997 12.3103 14.943 12.238C14.8862 12.1656 14.8158 12.1051 14.7357 12.0599L14.6917 12.0359C14.3425 11.8392 14.0604 11.5421 13.8821 11.1832C13.7038 10.8243 13.6375 10.42 13.6917 10.0229C13.7246 9.7783 13.7413 9.53176 13.7417 9.28493C13.7415 9.02526 13.7228 8.76593 13.6857 8.50893C13.6314 8.11044 13.6977 7.70483 13.8759 7.34431C14.0541 6.98379 14.3361 6.68484 14.6857 6.48593L14.7357 6.45693C14.8162 6.41204 14.887 6.35169 14.9442 6.27933C15.0013 6.20698 15.0436 6.12406 15.0686 6.03532C15.0936 5.94658 15.1008 5.85379 15.0898 5.76225C15.0789 5.67072 15.0499 5.58225 15.0047 5.50193C14.9116 5.3394 14.758 5.22024 14.5774 5.17042C14.3969 5.1206 14.2039 5.14414 14.0407 5.23593L13.9817 5.26993C13.6299 5.46971 13.226 5.55873 12.8228 5.52537C12.4196 5.49201 12.0358 5.33782 11.7217 5.08293C11.3084 4.75013 10.8481 4.48052 10.3557 4.28293C9.98017 4.1353 9.65793 3.87788 9.43101 3.54428C9.20409 3.21067 9.08303 2.8164 9.08366 2.41293V2.40593C9.08366 2.21948 9.00959 2.04067 8.87776 1.90884C8.74592 1.777 8.56711 1.70293 8.38066 1.70293C8.19421 1.70293 8.0154 1.777 7.88356 1.90884C7.75173 2.04067 7.67766 2.21948 7.67766 2.40593C7.6784 2.81209 7.55546 3.20884 7.32521 3.54342C7.09495 3.878 6.76828 4.13454 6.38866 4.27893C5.89066 4.47516 5.42484 4.74482 5.00666 5.07893C4.69242 5.33197 4.30933 5.48464 3.90718 5.5171C3.50503 5.54956 3.10242 5.4603 2.75166 5.26093L2.71166 5.23793C2.54872 5.14682 2.35642 5.12365 2.1765 5.17345C1.99658 5.22325 1.84356 5.34201 1.75066 5.50393C1.65966 5.6656 1.63656 5.85679 1.68643 6.03548C1.73631 6.21417 1.85508 6.36576 2.01666 6.45693L2.02766 6.46293C2.3788 6.66368 2.66173 6.96503 2.83998 7.32811C3.01822 7.69119 3.08359 8.09935 3.02766 8.49993C2.98975 8.75955 2.9707 9.02156 2.97066 9.28393C2.97082 9.53549 2.98819 9.78674 3.02266 10.0359C3.07883 10.4338 3.01338 10.8393 2.83492 11.1992C2.65645 11.5592 2.37331 11.8568 2.02266 12.0529L2.01066 12.0599C1.93044 12.105 1.85989 12.1654 1.80304 12.2378C1.7462 12.3101 1.70418 12.393 1.67938 12.4816C1.65458 12.5702 1.64749 12.6628 1.65852 12.7542C1.66955 12.8455 1.69848 12.9338 1.74366 13.0139C1.83676 13.1765 1.99032 13.2956 2.17088 13.3454C2.35145 13.3953 2.54438 13.3717 2.70766 13.2799C3.05997 13.0797 3.46466 12.9909 3.86843 13.0252C4.27221 13.0594 4.65613 13.2152 4.96966 13.4719L4.97766 13.4729ZM7.77766 10.7729C7.77755 10.7417 7.76792 10.7113 7.75004 10.6858C7.73217 10.6602 7.70692 10.6407 7.67766 10.6299C7.51385 10.5649 7.3608 10.4756 7.22366 10.3649C7.19943 10.345 7.16973 10.3329 7.13849 10.3303C7.10724 10.3276 7.07592 10.3344 7.04866 10.3499C6.96834 10.3949 6.87773 10.4184 6.78566 10.4179C6.69052 10.4182 6.59702 10.3932 6.51464 10.3456C6.43227 10.298 6.36396 10.2295 6.31666 10.1469C6.24654 10.0234 6.22822 9.87713 6.26571 9.74013C6.30319 9.60313 6.39342 9.48656 6.51666 9.41593C6.54292 9.40068 6.56413 9.37805 6.57764 9.35085C6.59115 9.32365 6.59637 9.29308 6.59266 9.26293C6.58161 9.1834 6.57593 9.10322 6.57566 9.02293C6.57569 8.93891 6.58204 8.855 6.59466 8.77193C6.59854 8.74113 6.5932 8.70987 6.57931 8.6821C6.56543 8.65434 6.54363 8.63131 6.51666 8.61593C6.39349 8.5455 6.30328 8.42911 6.26579 8.29227C6.2283 8.15543 6.24659 8.00931 6.31666 7.88593C6.38766 7.76283 6.50441 7.67275 6.6415 7.63529C6.77859 7.59784 6.92492 7.61604 7.04866 7.68593L7.05966 7.69193C7.08696 7.70729 7.11826 7.71408 7.14947 7.7114C7.18068 7.70873 7.21037 7.69671 7.23466 7.67693C7.3688 7.57009 7.51811 7.48381 7.67766 7.42093C7.70692 7.41013 7.73217 7.39064 7.75004 7.36509C7.76792 7.33953 7.77755 7.30912 7.77766 7.27793C7.77766 7.13564 7.83418 6.99918 7.9348 6.89857C8.03541 6.79796 8.17187 6.74143 8.31416 6.74143C8.45645 6.74143 8.59291 6.79796 8.69352 6.89857C8.79414 6.99918 8.85066 7.13564 8.85066 7.27793C8.85091 7.30908 8.8606 7.33943 8.87845 7.36496C8.89631 7.39049 8.92148 7.41001 8.95066 7.42093C9.10838 7.48442 9.25594 7.57067 9.38866 7.67693C9.41295 7.69671 9.44263 7.70873 9.47385 7.7114C9.50506 7.71408 9.53636 7.70729 9.56366 7.69193L9.57866 7.68393C9.70249 7.61372 9.84906 7.59535 9.98639 7.63282C10.1237 7.67029 10.2407 7.76056 10.3117 7.88393C10.3818 8.00746 10.4001 8.15373 10.3626 8.29073C10.3251 8.42774 10.2349 8.54431 10.1117 8.61493L10.0987 8.62093C10.0723 8.63608 10.051 8.6587 10.0375 8.68593C10.024 8.71315 10.0188 8.74378 10.0227 8.77393C10.0345 8.85607 10.0405 8.93894 10.0407 9.02193C10.0408 9.10087 10.0354 9.17973 10.0247 9.25793C10.021 9.28818 10.0264 9.31882 10.0401 9.34603C10.0538 9.37325 10.0752 9.39582 10.1017 9.41093L10.1127 9.41593C10.2359 9.48656 10.3261 9.60313 10.3636 9.74013C10.4011 9.87713 10.3828 10.0234 10.3127 10.1469C10.2417 10.27 10.1249 10.3601 9.98782 10.3976C9.85073 10.435 9.7044 10.4168 9.58066 10.3469H9.57466C9.54726 10.3317 9.51591 10.3251 9.48469 10.3279C9.45348 10.3308 9.42385 10.343 9.39966 10.3629C9.26434 10.4725 9.11332 10.5612 8.95166 10.6259C8.9224 10.6367 8.89715 10.6562 8.87927 10.6818C8.8614 10.7073 8.85177 10.7377 8.85166 10.7689V10.7769C8.85166 10.9192 8.79514 11.0557 8.69452 11.1563C8.59391 11.2569 8.45745 11.3134 8.31516 11.3134C8.17287 11.3134 8.03641 11.2569 7.9358 11.1563C7.83518 11.0557 7.77866 10.9192 7.77866 10.7769L7.77766 10.7729Z" fill="#929AA6" stroke="#929AA6" stroke-width="0.5"/>
</svg>
